<svg xmlns="http://www.w3.org/2000/svg" viewBox="0 0 30 30"><title>Video Icon</title><path d="M5.71,4.34A5.62,5.62,0,0,0,0,9.84V20.16a5.62,5.62,0,0,0,5.71,5.5H24.29A5.62,5.62,0,0,0,30,20.16V9.84a5.62,5.62,0,0,0-5.71-5.5Zm0,1.38H24.29a4.18,4.18,0,0,1,4.28,4.12V20.16a4.18,4.18,0,0,1-4.28,4.12H5.71a4.18,4.18,0,0,1-4.28-4.12V9.84A4.18,4.18,0,0,1,5.71,5.72Zm5.72,4.81v8.94a.71.71,0,0,0,1.08.6l7.86-4.47a.67.67,0,0,0,.36-.59.69.69,0,0,0-.36-.6L12.51,9.94a.77.77,0,0,0-.42-.1A.7.7,0,0,0,11.43,10.53Zm1.43,1.22L18.58,15l-5.72,3.27V11.75Z" fill-rule="evenodd"/></svg>
