<?xml version="1.0" encoding="utf-8"?>
<!-- Generator: Adobe Illustrator 23.0.2, SVG Export Plug-In . SVG Version: 6.00 Build 0)  -->
<svg version="1.1" id="Layer_1" xmlns="http://www.w3.org/2000/svg" xmlns:xlink="http://www.w3.org/1999/xlink" x="0px" y="0px"
	 viewBox="0 0 30 30" style="enable-background:new 0 0 30 30;" xml:space="preserve">
<style type="text/css">
	.st0{fill:#FFFFFF;}
</style>
<title>icon--check</title>
<path class="st0" d="M10.4,25.6c0.3,0.3,0.7,0.5,1.2,0.5c0.4,0,0.9-0.2,1.2-0.5L29,9.4c0.7-0.6,0.7-1.7,0-2.3c0,0,0,0,0,0l-2.7-2.7
	C26,4,25.6,3.9,25.1,3.9c-0.4,0-0.9,0.2-1.2,0.5L11.6,16.7L6,11.1c-0.3-0.3-0.7-0.5-1.2-0.5c-0.4,0-0.9,0.2-1.2,0.5L1,13.8
	c-0.7,0.6-0.7,1.7,0,2.4c0,0,0,0,0,0L10.4,25.6z"/>
</svg>
