<svg xmlns="http://www.w3.org/2000/svg" viewBox="0 0 227.03 91.22"><title>nypr-logo</title><polygon points="68.56 8.89 61.84 0.22 59.8 0.22 59.8 12.77 61.96 12.77 61.96 3.84 68.89 12.77 70.73 12.77 70.73 0.22 68.56 0.22 68.56 8.89 68.56 8.89" fill="#231f20"/><polygon points="84.55 0.22 75.24 0.22 75.24 12.77 84.63 12.77 84.63 10.79 77.45 10.79 77.45 7.42 83.74 7.42 83.74 5.45 77.45 5.45 77.45 2.19 84.55 2.19 84.55 0.22 84.55 0.22" fill="#231f20"/><polygon points="92.83 9.52 89.84 0.22 87.45 0.22 91.83 12.85 93.73 12.85 96.81 3.84 99.89 12.85 101.8 12.85 106.17 0.22 103.86 0.22 100.86 9.52 97.78 0.18 95.92 0.18 92.83 9.52 92.83 9.52" fill="#231f20"/><polygon points="118.27 7.76 123.25 0.22 120.72 0.22 117.17 5.77 113.66 0.22 111.06 0.22 116.05 7.82 116.05 12.77 118.27 12.77 118.27 7.76 118.27 7.76" fill="#231f20"/><path d="M131.36,0a6.44,6.44,0,0,0-6.58,6.29v.22a6.56,6.56,0,1,0,13.12,0A6.37,6.37,0,0,0,131.63,0Zm0,11a4.31,4.31,0,0,1-4.27-4.49A4.24,4.24,0,0,1,131.32,2a4.31,4.31,0,0,1,4.28,4.48A4.26,4.26,0,0,1,131.37,11Z" fill="#231f20"/><path d="M149,8a3.75,3.75,0,0,0,3-3.82c0-2.46-1.76-4-4.65-4h-5.6V12.77h2.2V8.39h2.76l3.08,4.38h2.6Zm-5-1.58V2.23h3.21c1.63,0,2.6.71,2.6,2.09s-1,2.12-2.58,2.12Z" fill="#231f20"/><polygon points="161.76 5.62 166.98 0.22 164.27 0.22 158.31 6.53 158.31 0.22 156.1 0.22 156.1 12.77 158.31 12.77 158.31 9.13 160.26 7.12 164.55 12.77 167.22 12.77 161.76 5.62 161.76 5.62" fill="#231f20"/><path d="M88.45,86.26a3.76,3.76,0,0,0,3-3.82c0-2.46-1.76-4-4.66-4h-5.6V91h2.2V86.65h2.76L89.23,91h2.59l-3.38-4.75Zm-5.06-1.58V80.47H86.6c1.63,0,2.6.71,2.6,2.09s-1,2.12-2.59,2.12Z" fill="#231f20"/><path d="M102.38,78.37h-2L94.81,91h2.26l1.29-3h5.94l1.27,3h2.33ZM99.17,86l2.15-5,2.17,5Z" fill="#231f20"/><path d="M115.9,78.46h-4.68V91h4.68c4,0,6.67-2.74,6.67-6.3s-2.72-6.25-6.67-6.25Zm0,10.56h-2.47V80.47h2.47a4.27,4.27,0,1,1,0,8.53Z" fill="#231f20"/><polygon points="126.53 78.46 126.53 91.01 128.74 91.01 128.74 78.46 126.53 78.46 126.53 78.46" fill="#231f20"/><path d="M139.28,78.24a6.47,6.47,0,1,0,.16,0Zm0,11A4.31,4.31,0,0,1,135,84.71a4.24,4.24,0,0,1,4.23-4.44,4.47,4.47,0,0,1,0,8.93Z" fill="#231f20"/><path d="M10.62,65.84V52.77H17c4.58,0,8.45-1.15,11.12-3.27h0a11.47,11.47,0,0,0,4.25-9.43h0V40a11.25,11.25,0,0,0-3.93-9.08h0c-2.52-2.1-6.24-3.3-10.9-3.3H2.2V65.83H0V25.4H17.51c5,0,9.25,1.32,12.3,3.81h0A13.45,13.45,0,0,1,34.53,40h0v.1A13.65,13.65,0,0,1,29.45,51.2h0C26.27,53.72,21.9,55,17,55H12.8V65.82H10.6Z" fill="#231f20"/><polygon points="128.66 65.82 128.66 25.4 130.85 25.4 130.85 63.64 158.19 63.64 158.19 63.64 158.19 65.82 128.66 65.82 128.66 65.82" fill="#231f20"/><polygon points="139.28 56.52 139.28 25.4 141.46 25.4 141.46 54.33 158.19 54.34 158.19 56.52 139.28 56.52 139.28 56.52" fill="#231f20"/><polygon points="176.52 65.82 176.52 25.4 178.71 25.4 178.71 65.82 176.52 65.82 176.52 65.82" fill="#231f20"/><polygon points="165.85 65.82 165.85 25.4 168.04 25.4 168.04 65.82 165.85 65.82 165.85 65.82" fill="#231f20"/><path d="M208.52,66.61a20.91,20.91,0,0,1-14.75-5.93h0a20.79,20.79,0,0,1-6.1-15h0V45.6a20.89,20.89,0,0,1,6.05-14.93h0a21.31,21.31,0,0,1,15.22-6.09h0c8.14,0,13.6,3.52,17.14,8.45h0l-1.76,1.27c-3.26-4.47-7.85-7.51-15.36-7.53h0c-11,0-19.08,8.24-19.11,18.82h0v.11a18.35,18.35,0,0,0,18.67,18.72h0c7.64,0,12-3,15.41-7.32h0l-6.26-4.45c-2.2,2.49-4.84,4.3-8.83,4.27h0a9.71,9.71,0,0,1-7.4-3.34h0a12,12,0,0,1-2.83-8h0v-.1a11.87,11.87,0,0,1,2.83-7.88h0a9.71,9.71,0,0,1,7.4-3.34h0c4,0,7,2,9.24,4.9h0l-1.7,1.36c-2.11-2.6-4.23-4.06-7.52-4.08h0c-4.68,0-8,3.93-8.05,9h0v.1c0,5.29,3.36,9.13,8.05,9.14h0c3.62,0,5.53-1.55,7.8-4.25h0l.65-.78L227,56.61l-.65.88c-3.69,5.15-9,9.1-17.74,9.1h-.11Z" fill="#231f20"/><path d="M21.88,35.85a8.1,8.1,0,0,0-5.19-1.51H10.62V46.67h6.11a8,8,0,0,0,5.15-1.61,5.63,5.63,0,0,0,2-4.46v-.11a5.68,5.68,0,0,0-2-4.6Zm-5.15,8.62h-4V36.54h3.89a6,6,0,0,1,3.81,1.05,3.45,3.45,0,0,1,1.22,2.9v.11c-.06,2.35-1.55,3.79-5,3.88Z" fill="#231f20"/><path d="M107.21,49.2a7.81,7.81,0,0,0-4.56-1.14H93.47v9.25h9.29a7.71,7.71,0,0,0,4.38-1.1A4.1,4.1,0,0,0,109,52.72v-.11a4,4,0,0,0-1.74-3.4Zm-.44,3.52a1.87,1.87,0,0,1-.88,1.69,5.44,5.44,0,0,1-3.13.72H95.65V50.25h7A5.83,5.83,0,0,1,106,51a1.8,1.8,0,0,1,.8,1.61v.11Z" fill="#231f20"/><path d="M105.67,34.94a7.48,7.48,0,0,0-4.23-1.06h-8V42.8h7.76a8,8,0,0,0,4.32-1,3.93,3.93,0,0,0,1.81-3.43v-.11A3.94,3.94,0,0,0,105.67,34.94Zm-.51,3.43a1.72,1.72,0,0,1-.8,1.6,6.12,6.12,0,0,1-3.14.65H95.65V36.07h5.8a5.37,5.37,0,0,1,3,.66,1.71,1.71,0,0,1,.75,1.53v.11Z" fill="#231f20"/><path d="M119.83,54.12v-.69a10.22,10.22,0,0,0-6-9,9.76,9.76,0,0,0,4.3-8.41c0-8.78-8.88-10.82-14-10.67H93.25v2.13H104.1c10.66,0,11.82,6.17,11.83,8.54a8.54,8.54,0,0,1-6.79,8.49s8.47,2.13,8.47,9.14c0,0,1.25,9.95-13.39,9.95h-11v2.17h11c4.72,0,8.59-1,11.32-3a10.61,10.61,0,0,0,4.29-8.69Z" fill="#231f20"/><path d="M47.63,62.42c-3.34-3.13-5.13-7.86-5.12-14.05h0v-23h2.2v23c0,5.79,1.64,9.82,4.44,12.46h0c2.8,2.64,6.93,4,12.2,4h0c5.28,0,9.46-1.32,12.33-4h0c2.86-2.65,4.53-6.74,4.54-12.73h0V25.4h2.2V48.1c0,6.37-1.84,11.18-5.24,14.33h0C71.79,65.58,67,67,61.38,67h0c-5.62,0-10.36-1.42-13.7-4.55Z" fill="#231f20"/><path d="M55.5,55a10,10,0,0,1-2.2-6.89h0V25.38h2.2V48.15c0,2.59.66,4.33,1.65,5.41h0a5.57,5.57,0,0,0,4.32,1.65h0a5.69,5.69,0,0,0,4.34-1.59h0a7.32,7.32,0,0,0,1.63-5.2h0v-23h2.2v23a9.53,9.53,0,0,1-2.23,6.71h0a7.9,7.9,0,0,1-5.93,2.26h0A7.74,7.74,0,0,1,55.55,55Z" fill="#231f20"/></svg>