<svg xmlns="http://www.w3.org/2000/svg" viewBox="0 0 769.69 305.79"><title>wnyc-logo</title><path d="M399.8,63.21V305.77h170V63.21ZM500.18,183v42.59H469.86V183.43l-41.34-66.68h34.36L485.25,155l22.54-38.24h33.73Z" fill="#e11837"/><path d="M599.7,0V305.79h170V0Zm89,227.73c-31.08,0-56.11-23.76-56.11-56.27v-.3c0-31.71,24.4-56.58,57.35-56.58,22.22,0,36.53,9.32,46.16,22.7l-22.68,17.56c-6.22-7.77-13.37-12.74-23.78-12.74-15.24,0-26,12.89-26,28.75v.31c0,16.32,10.72,29.06,26,29.06,11.34,0,18-5.28,24.54-13.2l22.71,16.16C726.59,217.32,712.75,227.73,688.66,227.73Z" fill="#e11837"/><path d="M199.9,36V305.77h170V36Zm138,189.56H311.42L265,165.87v59.69H235.11V116.75h28.13L308,174.26V116.75h29.84Z" fill="#e11837"/><polygon points="36.9 226.1 63.17 226.1 84.93 163.47 106.85 226.1 133.12 226.1 169.48 116.52 138.25 116.52 119.28 179.48 98.3 116.22 72.34 116.22 51.36 179.48 32.4 116.52 0.53 116.52 36.9 226.1" fill="#e11837"/><rect y="254.1" width="170.01" height="51.68" fill="#e11837"/></svg>